<svg id="Layer_1" data-name="Layer 1" xmlns="http://www.w3.org/2000/svg" viewBox="0 0 1739.65 314.08">
	<defs>
		<style>.cls-1{fill:#ff2b06;}.cls-2,.cls-3{fill:#fff;}.cls-3{font-size:145px;font-family:HelveticaWorld-Regular, Helvetica World;}.cls-4{letter-spacing:-0.12em;}.cls-5{letter-spacing:-0.02em;}.cls-6{letter-spacing:-0.02em;}.cls-7{letter-spacing:-0.01em;}</style>
	</defs>
	<title>TEDx</title>
	<path class="cls-1" d="M110.45,655.41l-7.57-10.9h7.21l4,6,4-6h7l-7.57,10.77,8.5,12.24h-7.21l-4.8-7.26-4.81,7.26h-7.08Z" transform="translate(-99 -381.27)"/>
	<path class="cls-2" d="M156,653.9H133.55v-4.76H156Zm0,9.53H133.55v-4.77H156Z" transform="translate(-99 -381.27)"/>
	<path class="cls-2" d="M173.25,641h-6.32v-5.21h6.32Zm-6.32,3.56h6.32v23h-6.32Z" transform="translate(-99 -381.27)"/>
	<path class="cls-2" d="M177.34,644.51h6v3.2h.14a8.21,8.21,0,0,1,7-3.83c6.72,0,8.41,3.79,8.41,9.48v14.16h-6.32v-13c0-3.78-1.11-5.65-4.05-5.65-3.43,0-4.9,1.91-4.9,6.59v12.06h-6.32Z" transform="translate(-99 -381.27)"/>
	<path class="cls-2" d="M219.27,664.58h-.09c-1.47,2.49-4.05,3.56-7,3.56-6.94,0-10.32-6-10.32-12.33,0-6.18,3.42-11.92,10.19-11.92a8,8,0,0,1,6.85,3.42H219V635.74h6.32v31.78h-6Zm-5.52-15.93c-4.14,0-5.56,3.56-5.56,7.34,0,3.61,1.64,7.39,5.56,7.39,4.18,0,5.43-3.65,5.43-7.43S217.85,648.65,213.75,648.65Z" transform="translate(-99 -381.27)"/>
	<path class="cls-2" d="M234.36,657.55c.17,4,2.13,5.83,5.65,5.83,2.54,0,4.58-1.56,5-3h5.57c-1.78,5.43-5.57,7.74-10.77,7.74-7.26,0-11.75-5-11.75-12.1,0-6.9,4.76-12.15,11.75-12.15,7.83,0,11.61,6.58,11.17,13.66Zm10.28-4c-.58-3.2-2-4.89-5-4.89a5,5,0,0,0-5.25,4.89Z" transform="translate(-99 -381.27)"/>
	<path class="cls-2" d="M253.8,644.51h6v2.94h.09a7.67,7.67,0,0,1,6.86-3.57c7.21,0,10.46,5.84,10.46,12.38,0,6.14-3.39,11.88-10.11,11.88a8.18,8.18,0,0,1-6.9-3.47h-.08v11H253.8V644.51Zm17.1,11.57c0-3.65-1.47-7.43-5.52-7.43s-5.48,3.69-5.48,7.43,1.43,7.3,5.52,7.3S270.9,659.82,270.9,656.08Z" transform="translate(-99 -381.27)"/>
	<path class="cls-2" d="M285.32,657.55c.17,4,2.13,5.83,5.65,5.83,2.54,0,4.58-1.56,5-3h5.57c-1.78,5.43-5.57,7.74-10.77,7.74-7.26,0-11.75-5-11.75-12.1,0-6.9,4.76-12.15,11.75-12.15,7.83,0,11.61,6.58,11.17,13.66Zm10.28-4c-.58-3.2-2-4.89-5-4.89a5,5,0,0,0-5.25,4.89Z" transform="translate(-99 -381.27)"/>
	<path class="cls-2" d="M304.76,644.51h6v3.2h.14a8.21,8.21,0,0,1,7-3.83c6.72,0,8.41,3.79,8.41,9.48v14.16H320v-13c0-3.78-1.11-5.65-4-5.65-3.43,0-4.89,1.91-4.89,6.59v12.06h-6.33Z" transform="translate(-99 -381.27)"/>
	<path class="cls-2" d="M346.69,664.58h-.09c-1.47,2.49-4.05,3.56-7,3.56-6.94,0-10.32-6-10.32-12.33,0-6.18,3.42-11.92,10.19-11.92a8,8,0,0,1,6.85,3.42h.05V635.74h6.32v31.78h-6v-2.94Zm-5.52-15.93c-4.14,0-5.56,3.56-5.56,7.34,0,3.61,1.65,7.39,5.56,7.39,4.19,0,5.43-3.65,5.43-7.43S345.27,648.65,341.17,648.65Z" transform="translate(-99 -381.27)"/>
	<path class="cls-2" d="M361.78,657.55c.18,4,2.13,5.83,5.65,5.83,2.54,0,4.59-1.56,5-3H378c-1.78,5.43-5.56,7.74-10.77,7.74-7.26,0-11.75-5-11.75-12.1,0-6.9,4.76-12.15,11.75-12.15,7.83,0,11.62,6.58,11.17,13.66Zm10.28-4c-.58-3.2-2-4.89-5-4.89a5,5,0,0,0-5.25,4.89Z" transform="translate(-99 -381.27)"/>
	<path class="cls-2" d="M381.23,644.51h6v3.2h.13a8.21,8.21,0,0,1,7-3.83c6.72,0,8.41,3.79,8.41,9.48v14.16h-6.32v-13c0-3.78-1.11-5.65-4.05-5.65-3.42,0-4.89,1.91-4.89,6.59v12.06h-6.32v-23Z" transform="translate(-99 -381.27)"/>
	<path class="cls-2" d="M414.74,644.51h4.63v4.23h-4.63v11.39c0,2.14.53,2.67,2.67,2.67a9.29,9.29,0,0,0,2-.18v4.94a24,24,0,0,1-3.69.23c-3.88,0-7.26-.89-7.26-5.48V648.74h-3.83v-4.23h3.83v-6.9h6.32v6.9Z" transform="translate(-99 -381.27)"/>
	<path class="cls-2" d="M421.68,635.74H428v31.78h-6.32Z" transform="translate(-99 -381.27)"/>
	<path class="cls-2" d="M443.45,670.41c-1.38,3.7-3.56,5.21-7.93,5.21a38.61,38.61,0,0,1-3.87-.22v-5.21a32.11,32.11,0,0,0,3.7.22c2.18-.22,2.89-2.49,2.18-4.31l-8.1-21.59h6.76l5.21,15.76h.09l5-15.76h6.54Z" transform="translate(-99 -381.27)"/>
	<path class="cls-2" d="M477,643.88c7.26,0,11.93,4.81,11.93,12.16s-4.67,12.1-11.93,12.1-11.88-4.81-11.88-12.1S469.75,643.88,477,643.88Zm0,19.5c4.32,0,5.61-3.69,5.61-7.34s-1.29-7.39-5.61-7.39-5.56,3.69-5.56,7.39S472.69,663.38,477,663.38Z" transform="translate(-99 -381.27)"/>
	<path class="cls-2" d="M491.2,644.51h6v4.27h.09a8.14,8.14,0,0,1,7.34-4.9,4.49,4.49,0,0,1,1.38.23V650a11.81,11.81,0,0,0-2.27-.22c-4.62,0-6.23,3.34-6.23,7.39v10.37H491.2v-23Z" transform="translate(-99 -381.27)"/>
	<path class="cls-2" d="M529.75,666.05c0,3.78-1.34,10.19-11.93,10.19-4.54,0-9.84-2.13-10.15-7.39H514c.58,2.36,2.49,3.17,4.71,3.17,3.52,0,5.12-2.41,5.08-5.7v-3h-.09a7.76,7.76,0,0,1-6.9,3.56c-6.9,0-9.84-5.25-9.84-11.57,0-6,3.43-11.4,9.89-11.4,3,0,5.34,1,6.85,3.7h.09v-3.07h6v21.54Zm-6-10.32c0-3.74-1.29-7.08-5.39-7.08-3.56,0-5.12,3.11-5.12,6.54s1.25,6.9,5.12,6.9C522,662.09,523.74,659,523.74,655.73Z" transform="translate(-99 -381.27)"/>
	<path class="cls-2" d="M532.77,651.59c.36-5.92,5.65-7.7,10.82-7.7,4.58,0,10.1,1,10.1,6.54v12c0,2.09.22,4.19.8,5.12h-6.41a9.28,9.28,0,0,1-.44-2.23,10.54,10.54,0,0,1-7.75,2.85c-4.36,0-7.83-2.18-7.83-6.9,0-5.2,3.92-6.45,7.83-7s7.48-.45,7.48-3-1.87-3.12-4.1-3.12c-2.4,0-4,1-4.18,3.48Zm14.6,4.67c-1.07.93-3.29,1-5.25,1.33s-3.74,1.07-3.74,3.39,1.82,2.93,3.87,2.93c4.94,0,5.12-3.91,5.12-5.29v-2.36Z" transform="translate(-99 -381.27)"/>
	<path class="cls-2" d="M557.7,644.51h6v3.2h.14a8.21,8.21,0,0,1,7-3.83c6.72,0,8.41,3.79,8.41,9.48v14.16H573v-13c0-3.78-1.11-5.65-4.05-5.65-3.43,0-4.89,1.91-4.89,6.59v12.06h-6.33v-23Z" transform="translate(-99 -381.27)"/>
	<path class="cls-2" d="M588.81,641h-6.32v-5.21h6.32Zm-6.33,3.56h6.32v23h-6.32Z" transform="translate(-99 -381.27)"/>
	<path class="cls-2" d="M591.48,662.76l12-13.49H592.37v-4.76h19.4v4.76l-12,13.49h12.82v4.76H591.48v-4.76Z" transform="translate(-99 -381.27)"/>
	<path class="cls-2" d="M620.32,657.55c.17,4,2.13,5.83,5.65,5.83,2.54,0,4.58-1.56,5-3h5.57c-1.78,5.43-5.57,7.74-10.77,7.74-7.26,0-11.75-5-11.75-12.1,0-6.9,4.76-12.15,11.75-12.15,7.83,0,11.61,6.58,11.17,13.66Zm10.28-4c-.58-3.2-2-4.89-5-4.89a5,5,0,0,0-5.25,4.89Z" transform="translate(-99 -381.27)"/>
	<path class="cls-2" d="M656.19,664.58h-.09c-1.47,2.49-4.05,3.56-7,3.56-6.94,0-10.32-6-10.32-12.33,0-6.18,3.42-11.92,10.19-11.92a8,8,0,0,1,6.85,3.42h0V635.74h6.32v31.78h-6v-2.94Zm-5.52-15.93c-4.14,0-5.56,3.56-5.56,7.34,0,3.61,1.64,7.39,5.56,7.39,4.19,0,5.43-3.65,5.43-7.43S654.77,648.65,650.67,648.65Z" transform="translate(-99 -381.27)"/>
	<path class="cls-2" d="M685.25,641.62h-9.52v-5.88h26v5.88h-9.53v25.9h-7v-25.9Z" transform="translate(-99 -381.27)"/>
	<path class="cls-2" d="M704.52,635.74h23.77v5.87H711.51v6.81h15.4v5.43h-15.4v7.79h17.14v5.88H704.52V635.74Z" transform="translate(-99 -381.27)"/>
	<path class="cls-2" d="M731.58,635.74h13.71c8.24,0,14.42,5.16,14.42,15.71,0,9.21-4.72,16.07-14.42,16.07H731.58Zm7,25.9h6.23c4.05,0,7.93-2.49,7.93-9.52,0-6.41-2.23-10.5-9.17-10.5h-5Z" transform="translate(-99 -381.27)"/>
	<path class="cls-2" d="M779.7,657.55c.17,4,2.13,5.83,5.65,5.83,2.53,0,4.58-1.56,5-3h5.57c-1.78,5.43-5.57,7.74-10.78,7.74-7.25,0-11.75-5-11.75-12.1,0-6.9,4.77-12.15,11.75-12.15,7.84,0,11.62,6.58,11.18,13.66Zm10.28-4c-.58-3.2-2-4.89-5-4.89a5,5,0,0,0-5.25,4.89Z" transform="translate(-99 -381.27)"/>
	<path class="cls-2" d="M811,667.52h-7l-7.88-23h6.64l4.85,15.71h.09l4.85-15.71h6.27Z" transform="translate(-99 -381.27)"/>
	<path class="cls-2" d="M824.83,657.55c.17,4,2.13,5.83,5.65,5.83,2.53,0,4.58-1.56,5-3H841c-1.78,5.43-5.57,7.74-10.78,7.74-7.25,0-11.75-5-11.75-12.1,0-6.9,4.77-12.15,11.75-12.15,7.84,0,11.62,6.58,11.18,13.66Zm10.28-4c-.58-3.2-2-4.89-5-4.89a5,5,0,0,0-5.25,4.89Z" transform="translate(-99 -381.27)"/>
	<path class="cls-2" d="M844.28,644.51h6v3.2h.14a8.21,8.21,0,0,1,7-3.83c6.72,0,8.41,3.79,8.41,9.48v14.16h-6.32v-13c0-3.78-1.11-5.65-4-5.65-3.43,0-4.89,1.91-4.89,6.59v12.06h-6.32v-23Z" transform="translate(-99 -381.27)"/>
	<path class="cls-2" d="M877.79,644.51h4.63v4.23h-4.63v11.39c0,2.14.53,2.67,2.67,2.67a9.29,9.29,0,0,0,2-.18v4.94a24,24,0,0,1-3.7.23c-3.87,0-7.25-.89-7.25-5.48V648.74h-3.83v-4.23h3.83v-6.9h6.32v6.9Z" transform="translate(-99 -381.27)"/>
	<text class="cls-3" transform="translate(0 229.4)">
		<tspan class="cls-4">T</tspan>
		<tspan x="70.38" y="0">echnicalUni</tspan>
		<tspan class="cls-5" x="818.67" y="0">v</tspan>
		<tspan x="887.7" y="0">ersit</tspan>
		<tspan class="cls-6" x="1159.86" y="0">y</tspan>
		<tspan x="1228.61" y="0">ofC</tspan>
		<tspan class="cls-7" x="1454.67" y="0">r</tspan>
		<tspan x="1500.48" y="0">ete</tspan>
	</text>
	<path class="cls-1" d="M129.5,408.6H99.85V381.48h91.87V408.6H162.08v78.69H129.5Z" transform="translate(-99 -381.27)"/>
	<path class="cls-1" d="M196.79,381.48H286V408.6H229.39v13.18H286V447H229.39v13.18H286v27.12H196.79Z" transform="translate(-99 -381.27)"/>
	<path class="cls-1" d="M291.47,381.48H345c35.26,0,47.73,26.08,47.73,52.75,0,32.47-17.19,53.06-54.1,53.06H291.47V381.48Zm32.6,78.69h12.75c20.31,0,23.28-16.45,23.28-26.39,0-6.66-2.09-25.18-25.66-25.18H324.07Z" transform="translate(-99 -381.27)"/>
	<path class="cls-1" d="M439.54,446.52,429.6,430l-9.7,16.5H396l22.68-33.35-21.84-31.9h23.9L429.6,397l9.1-15.77h23.89l-21.83,31.9,22.68,33.35Z" transform="translate(-99 -381.27)"/>
</svg>