<?xml version="1.0" encoding="UTF-8" standalone="no"?>
<svg
		xmlns:dc="http://purl.org/dc/elements/1.1/"
		xmlns:cc="http://creativecommons.org/ns#"
		xmlns:rdf="http://www.w3.org/1999/02/22-rdf-syntax-ns#"
		xmlns:sodipodi="http://sodipodi.sourceforge.net/DTD/sodipodi-0.dtd"
		xmlns:inkscape="http://www.inkscape.org/namespaces/inkscape"
		xmlns="http://www.w3.org/2000/svg"
		width="1920pt"
		height="1080pt"
		viewBox="0 0 1920 1080"
		version="1.2"
		id="svg127"
		sodipodi:docname="TEDxLogo.svg"
		inkscape:version="0.92.2 2405546, 2018-03-11">
	<metadata
			id="metadata133">
		<rdf:RDF>
			<cc:Work
					rdf:about="">
				<dc:format>image/svg+xml</dc:format>
				<dc:type
						rdf:resource="http://purl.org/dc/dcmitype/StillImage"/>
				<dc:title></dc:title>
			</cc:Work>
		</rdf:RDF>
	</metadata>
	<defs
			id="defs131"/>
	<sodipodi:namedview
			pagecolor="#ffffff"
			bordercolor="#666666"
			borderopacity="1"
			objecttolerance="10"
			gridtolerance="10"
			guidetolerance="10"
			inkscape:pageopacity="0"
			inkscape:pageshadow="2"
			inkscape:window-width="1280"
			inkscape:window-height="975"
			id="namedview129"
			showgrid="false"
			inkscape:zoom="0.36460193"
			inkscape:cx="1247.048"
			inkscape:cy="707.02604"
			inkscape:window-x="0"
			inkscape:window-y="0"
			inkscape:window-maximized="1"
			inkscape:current-layer="svg127"/>
	<g
			id="surface577">
		<path
				style="fill:#ff2805;fill-opacity:1;fill-rule:nonzero;stroke:none"
				d="m 110.44922,655.41406 -7.56641,-10.90625 h 7.21094 l 4.05078,6.00781 4.00391,-6.00781 h 6.98828 l -7.56641,10.76953 8.5,12.24219 h -7.20703 l -4.80859,-7.25391 -4.80469,7.25391 h -7.07812 z m 0,0"
				id="path2"
				inkscape:connector-curvature="0"/>
		<path
				style="fill:#ffffff;fill-opacity:1;fill-rule:nonzero;stroke:none"
				d="m 156.02734,663.42578 h -22.48047 v -4.76562 h 22.48047 z m 0,-9.52734 h -22.48047 v -4.76172 h 22.48047 z m 0,0"
				id="path4"
				inkscape:connector-curvature="0"/>
		<path
				style="fill:#ffffff;fill-opacity:1;fill-rule:nonzero;stroke:none"
				d="M 166.92969,644.50781 H 173.25 v 23.01172 h -6.32031 z m 6.32031,-3.5625 h -6.32031 v -5.20703 H 173.25 Z m 0,0"
				id="path6"
				inkscape:connector-curvature="0"/>
		<path
				style="fill:#ffffff;fill-opacity:1;fill-rule:nonzero;stroke:none"
				d="m 177.34375,644.50781 h 6.00781 v 3.20313 h 0.13281 c 1.60157,-2.58203 4.36329,-3.82422 7.03516,-3.82422 6.71875,0 8.41016,3.78125 8.41016,9.47656 v 14.15625 h -6.32032 v -12.99609 c 0,-3.78516 -1.11328,-5.65235 -4.05078,-5.65235 -3.42578,0 -4.89453,1.91407 -4.89453,6.58594 v 12.0625 h -6.32031 z m 0,0"
				id="path8"
				inkscape:connector-curvature="0"/>
		<path
				style="fill:#ffffff;fill-opacity:1;fill-rule:nonzero;stroke:none"
				d="m 213.75,648.64844 c -4.14063,0 -5.5625,3.55859 -5.5625,7.34375 0,3.60156 1.64453,7.38672 5.5625,7.38672 4.18359,0 5.42969,-3.64844 5.42969,-7.4336 0,-3.73828 -1.33594,-7.29687 -5.42969,-7.29687 m 5.51953,15.93359 h -0.0898 c -1.46875,2.49219 -4.04688,3.55859 -6.98828,3.55859 -6.94141,0 -10.32422,-5.96093 -10.32422,-12.32421 0,-6.19141 3.42578,-11.9336 10.1914,-11.9336 2.71485,0 5.38672,1.16016 6.85547,3.42969 h -0.043 0.0898 v -11.57422 h 6.3164 v 31.78125 h -6.00781 z m 0,0"
				id="path10"
				inkscape:connector-curvature="0"/>
		<path
				style="fill:#ffffff;fill-opacity:1;fill-rule:nonzero;stroke:none"
				d="m 244.63672,653.54297 c -0.57813,-3.20313 -1.95703,-4.89453 -5.02735,-4.89453 -4.00781,0 -5.16406,3.11328 -5.2539,4.89453 z m -10.28125,4.00781 c 0.17969,4.00391 2.13672,5.82813 5.65234,5.82813 2.53906,0 4.58594,-1.5586 4.98828,-2.98047 h 5.5625 c -1.78125,5.42968 -5.5625,7.74609 -10.76953,7.74609 -7.25781,0 -11.75,-4.98828 -11.75,-12.10937 0,-6.89844 4.76172,-12.14844 11.75,-12.14844 7.83203,0 11.61328,6.58594 11.17188,13.66406 z m 0,0"
				id="path12"
				inkscape:connector-curvature="0"/>
		<path
				style="fill:#ffffff;fill-opacity:1;fill-rule:nonzero;stroke:none"
				d="m 270.89844,656.08203 c 0,-3.65234 -1.46875,-7.43359 -5.51953,-7.43359 -4.14063,0 -5.47657,3.69531 -5.47657,7.43359 0,3.73828 1.42578,7.29688 5.51953,7.29688 4.14063,0 5.47657,-3.5586 5.47657,-7.29688 m -17.09375,-11.57422 h 6.00781 v 2.9375 h 0.0898 c 1.51172,-2.44531 4.00782,-3.55859 6.85547,-3.55859 7.21094,0 10.46094,5.82812 10.46094,12.37109 0,6.14453 -3.38281,11.88672 -10.10547,11.88672 -2.76172,0 -5.38672,-1.20312 -6.89844,-3.47266 h -0.0898 v 10.94922 h -6.32031 z m 0,0"
				id="path14"
				inkscape:connector-curvature="0"/>
		<path
				style="fill:#ffffff;fill-opacity:1;fill-rule:nonzero;stroke:none"
				d="m 295.59766,653.54297 c -0.57813,-3.20313 -1.95704,-4.89453 -5.03125,-4.89453 -4.00391,0 -5.16016,3.11328 -5.25,4.89453 z m -10.28125,4.00781 c 0.17578,4.00391 2.13671,5.82813 5.65234,5.82813 2.53906,0 4.58594,-1.5586 4.98437,-2.98047 h 5.56641 c -1.78125,5.42968 -5.56641,7.74609 -10.77344,7.74609 -7.2539,0 -11.75,-4.98828 -11.75,-12.10937 0,-6.89844 4.76172,-12.14844 11.75,-12.14844 7.83594,0 11.61719,6.58594 11.17188,13.66406 z m 0,0"
				id="path16"
				inkscape:connector-curvature="0"/>
		<path
				style="fill:#ffffff;fill-opacity:1;fill-rule:nonzero;stroke:none"
				d="m 304.76562,644.50781 h 6.00782 v 3.20313 h 0.13281 c 1.60547,-2.58203 4.36328,-3.82422 7.03516,-3.82422 6.71875,0 8.41015,3.78125 8.41015,9.47656 v 14.15625 h -6.32031 v -12.99609 c 0,-3.78516 -1.11328,-5.65235 -4.05078,-5.65235 -3.42578,0 -4.89453,1.91407 -4.89453,6.58594 v 12.0625 h -6.32032 z m 0,0"
				id="path18"
				inkscape:connector-curvature="0"/>
		<path
				style="fill:#ffffff;fill-opacity:1;fill-rule:nonzero;stroke:none"
				d="m 341.17187,648.64844 c -4.14062,0 -5.5625,3.55859 -5.5625,7.34375 0,3.60156 1.64454,7.38672 5.5625,7.38672 4.1836,0 5.42969,-3.64844 5.42969,-7.4336 0,-3.73828 -1.33594,-7.29687 -5.42969,-7.29687 m 5.51954,15.93359 h -0.0899 c -1.46875,2.49219 -4.05078,3.55859 -6.98828,3.55859 -6.94141,0 -10.32422,-5.96093 -10.32422,-12.32421 0,-6.19141 3.42578,-11.9336 10.19141,-11.9336 2.71484,0 5.38672,1.16016 6.85547,3.42969 h -0.0469 0.0899 v -11.57422 h 6.32031 v 31.78125 h -6.00781 z m 0,0"
				id="path20"
				inkscape:connector-curvature="0"/>
		<path
				style="fill:#ffffff;fill-opacity:1;fill-rule:nonzero;stroke:none"
				d="m 372.05859,653.54297 c -0.57812,-3.20313 -1.95703,-4.89453 -5.02734,-4.89453 -4.00781,0 -5.16406,3.11328 -5.25391,4.89453 z m -10.28125,4.00781 c 0.17969,4.00391 2.13672,5.82813 5.65235,5.82813 2.53906,0 4.58593,-1.5586 4.98828,-2.98047 h 5.5625 c -1.78125,5.42968 -5.5625,7.74609 -10.76953,7.74609 -7.25782,0 -11.75,-4.98828 -11.75,-12.10937 0,-6.89844 4.76172,-12.14844 11.75,-12.14844 7.83203,0 11.61328,6.58594 11.17187,13.66406 z m 0,0"
				id="path22"
				inkscape:connector-curvature="0"/>
		<path
				style="fill:#ffffff;fill-opacity:1;fill-rule:nonzero;stroke:none"
				d="m 381.22656,644.50781 h 6.00781 v 3.20313 h 0.13282 c 1.60547,-2.58203 4.36328,-3.82422 7.03515,-3.82422 6.72266,0 8.41016,3.78125 8.41016,9.47656 v 14.15625 h -6.32031 v -12.99609 c 0,-3.78516 -1.10938,-5.65235 -4.04688,-5.65235 -3.42969,0 -4.89844,1.91407 -4.89844,6.58594 v 12.0625 h -6.32031 z m 0,0"
				id="path24"
				inkscape:connector-curvature="0"/>
		<path
				style="fill:#ffffff;fill-opacity:1;fill-rule:nonzero;stroke:none"
				d="m 414.74219,644.50781 h 4.6289 v 4.23047 h -4.6289 v 11.39453 c 0,2.13672 0.53125,2.66797 2.66797,2.66797 0.66796,0 1.29296,-0.043 1.96093,-0.17578 v 4.94141 c -1.07031,0.17578 -2.44922,0.21875 -3.69531,0.21875 -3.875,0 -7.25391,-0.88672 -7.25391,-5.47266 v -13.57422 h -3.82812 v -4.23047 h 3.82812 v -6.89844 h 6.32032 z m 0,0"
				id="path26"
				inkscape:connector-curvature="0"/>
		<path
				style="fill:#ffffff;fill-opacity:1;fill-rule:nonzero;stroke:none"
				d="m 421.68359,635.73828 h 6.32032 v 31.78125 h -6.32032 z m 0,0"
				id="path28"
				inkscape:connector-curvature="0"/>
		<path
				style="fill:#ffffff;fill-opacity:1;fill-rule:nonzero;stroke:none"
				d="m 443.44922,670.41406 c -1.38281,3.69531 -3.5625,5.20703 -7.92578,5.20703 -1.28907,0 -2.58203,-0.0898 -3.8711,-0.22265 v -5.20703 c 1.20313,0.0859 2.44922,0.26562 3.69532,0.22265 2.17968,-0.22265 2.89062,-2.49219 2.17968,-4.3164 l -8.10156,-21.58985 h 6.76563 l 5.21093,15.75781 h 0.0859 l 5.03125,-15.75781 h 6.54297 z m 0,0"
				id="path30"
				inkscape:connector-curvature="0"/>
		<path
				style="fill:#ffffff;fill-opacity:1;fill-rule:nonzero;stroke:none"
				d="m 476.96094,663.37891 c 4.3164,0 5.60937,-3.69141 5.60937,-7.34375 0,-3.69141 -1.29297,-7.38672 -5.60937,-7.38672 -4.27344,0 -5.5625,3.6914 -5.5625,7.38672 0,3.65234 1.28906,7.34375 5.5625,7.34375 m 0,-19.49219 c 7.25781,0 11.92968,4.80469 11.92968,12.14844 0,7.30078 -4.67187,12.10546 -11.92968,12.10546 -7.21094,0 -11.88282,-4.80468 -11.88282,-12.10546 0,-7.34375 4.67188,-12.14844 11.88282,-12.14844"
				id="path32"
				inkscape:connector-curvature="0"/>
		<path
				style="fill:#ffffff;fill-opacity:1;fill-rule:nonzero;stroke:none"
				d="m 491.20312,644.50781 h 6.00782 v 4.27344 h 0.0898 c 1.15625,-2.89453 4.27344,-4.89453 7.34375,-4.89453 0.44531,0 0.98047,0.0859 1.37891,0.22265 v 5.875 c -0.57813,-0.13281 -1.51172,-0.22265 -2.26953,-0.22265 -4.62891,0 -6.23047,3.33594 -6.23047,7.39062 v 10.3711 h -6.32032 z m 0,0"
				id="path34"
				inkscape:connector-curvature="0"/>
		<path
				style="fill:#ffffff;fill-opacity:1;fill-rule:nonzero;stroke:none"
				d="m 523.73828,655.72266 c 0,-3.73438 -1.29297,-7.07422 -5.38672,-7.07422 -3.5625,0 -5.11719,3.11328 -5.11719,6.54297 0,3.29296 1.2461,6.89843 5.11719,6.89843 3.60547,0 5.38672,-3.07031 5.38672,-6.36718 m 6.00781,10.32812 c 0,3.78125 -1.33593,10.19141 -11.92968,10.19141 -4.53907,0 -9.83594,-2.13282 -10.14844,-7.38672 h 6.27734 c 0.57813,2.35937 2.49219,3.16015 4.71875,3.16015 3.51563,0 5.11719,-2.40234 5.07422,-5.69531 v -3.03125 h -0.0898 c -1.37891,2.40625 -4.14063,3.5625 -6.89844,3.5625 -6.89844,0 -9.83594,-5.2539 -9.83594,-11.57031 0,-5.96484 3.42578,-11.39844 9.87891,-11.39844 3.02734,0 5.34375,1.02735 6.85547,3.69531 h 0.0898 v -3.07031 h 6.00781 z m 0,0"
				id="path36"
				inkscape:connector-curvature="0"/>
		<path
				style="fill:#ffffff;fill-opacity:1;fill-rule:nonzero;stroke:none"
				d="m 547.37109,656.25781 c -1.0664,0.9375 -3.29297,0.98047 -5.2539,1.33594 -1.95703,0.39844 -3.73828,1.06641 -3.73828,3.38281 0,2.35938 1.82812,2.9375 3.875,2.9375 4.9375,0 5.11718,-3.91797 5.11718,-5.29687 z m -14.59765,-4.67187 c 0.35547,-5.92188 5.65234,-7.69922 10.8125,-7.69922 4.58593,0 10.10547,1.02344 10.10547,6.54297 v 11.97265 c 0,2.08985 0.22265,4.1836 0.80078,5.11719 h -6.41016 c -0.22266,-0.71094 -0.39844,-1.46875 -0.44531,-2.22656 -2.00391,2.09375 -4.94141,2.85156 -7.7461,2.85156 -4.35937,0 -7.83203,-2.18359 -7.83203,-6.90234 0,-5.20703 3.91797,-6.45313 7.83203,-6.98828 3.875,-0.57813 7.48047,-0.44141 7.48047,-3.02344 0,-2.71485 -1.87109,-3.11719 -4.09765,-3.11719 -2.40235,0 -3.96094,0.98047 -4.1836,3.47266 z m 0,0"
				id="path38"
				inkscape:connector-curvature="0"/>
		<path
				style="fill:#ffffff;fill-opacity:1;fill-rule:nonzero;stroke:none"
				d="m 557.69531,644.50781 h 6.00781 v 3.20313 h 0.13282 c 1.60547,-2.58203 4.36328,-3.82422 7.03515,-3.82422 6.71875,0 8.41016,3.78125 8.41016,9.47656 v 14.15625 h -6.32031 v -12.99609 c 0,-3.78516 -1.11328,-5.65235 -4.05078,-5.65235 -3.42579,0 -4.89454,1.91407 -4.89454,6.58594 v 12.0625 h -6.32031 z m 0,0"
				id="path40"
				inkscape:connector-curvature="0"/>
		<path
				style="fill:#ffffff;fill-opacity:1;fill-rule:nonzero;stroke:none"
				d="m 582.48437,644.50781 h 6.32032 v 23.01172 h -6.32032 z m 6.32032,-3.5625 h -6.32032 v -5.20703 h 6.32032 z m 0,0"
				id="path42"
				inkscape:connector-curvature="0"/>
		<path
				style="fill:#ffffff;fill-opacity:1;fill-rule:nonzero;stroke:none"
				d="m 591.47656,662.75781 11.97266,-13.48437 h -11.08203 v -4.76563 h 19.40625 v 4.76563 l -11.97266,13.48437 h 12.81641 v 4.76172 h -21.14063 z m 0,0"
				id="path44"
				inkscape:connector-curvature="0"/>
		<path
				style="fill:#ffffff;fill-opacity:1;fill-rule:nonzero;stroke:none"
				d="m 630.59766,653.54297 c -0.57813,-3.20313 -1.95704,-4.89453 -5.02735,-4.89453 -4.00781,0 -5.16406,3.11328 -5.2539,4.89453 z m -10.28125,4.00781 c 0.17968,4.00391 2.13671,5.82813 5.65234,5.82813 2.53906,0 4.58594,-1.5586 4.98437,-2.98047 h 5.5625 c -1.77734,5.42968 -5.5625,7.74609 -10.76953,7.74609 -7.2539,0 -11.75,-4.98828 -11.75,-12.10937 0,-6.89844 4.76172,-12.14844 11.75,-12.14844 7.83594,0 11.61719,6.58594 11.17188,13.66406 z m 0,0"
				id="path46"
				inkscape:connector-curvature="0"/>
		<path
				style="fill:#ffffff;fill-opacity:1;fill-rule:nonzero;stroke:none"
				d="m 650.67187,648.64844 c -4.14062,0 -5.5625,3.55859 -5.5625,7.34375 0,3.60156 1.64454,7.38672 5.5625,7.38672 4.1836,0 5.42969,-3.64844 5.42969,-7.4336 0,-3.73828 -1.33594,-7.29687 -5.42969,-7.29687 m 5.51954,15.93359 h -0.0899 c -1.46875,2.49219 -4.05078,3.55859 -6.98828,3.55859 -6.94531,0 -10.32812,-5.96093 -10.32812,-12.32421 0,-6.19141 3.42968,-11.9336 10.19531,-11.9336 2.71484,0 5.38672,1.16016 6.85156,3.42969 h -0.043 0.0899 v -11.57422 h 6.32031 v 31.78125 h -6.00781 z m 0,0"
				id="path48"
				inkscape:connector-curvature="0"/>
		<path
				style="fill:#ffffff;fill-opacity:1;fill-rule:nonzero;stroke:none"
				d="m 685.25391,641.61328 h -9.52735 v -5.875 h 26.03906 v 5.875 h -9.52343 v 25.90625 h -6.98828 z m 0,0"
				id="path50"
				inkscape:connector-curvature="0"/>
		<path
				style="fill:#ffffff;fill-opacity:1;fill-rule:nonzero;stroke:none"
				d="m 704.52344,635.73828 h 23.76953 v 5.875 h -16.78125 v 6.8125 h 15.39844 v 5.42578 h -15.39844 v 7.78906 h 17.13672 v 5.875 h -24.125 z m 0,0"
				id="path52"
				inkscape:connector-curvature="0"/>
		<path
				style="fill:#ffffff;fill-opacity:1;fill-rule:nonzero;stroke:none"
				d="m 738.57422,661.64453 h 6.23047 c 4.04687,0 7.92187,-2.49219 7.92187,-9.52344 0,-6.41406 -2.22656,-10.5039 -9.17187,-10.5039 h -4.98047 z m -6.99219,-25.90625 h 13.71094 c 8.23437,0 14.42187,5.16406 14.42187,15.71484 0,9.21094 -4.71875,16.06641 -14.42187,16.06641 h -13.71094 z m 0,0"
				id="path54"
				inkscape:connector-curvature="0"/>
		<path
				style="fill:#ffffff;fill-opacity:1;fill-rule:nonzero;stroke:none"
				d="m 789.97656,653.54297 c -0.57812,-3.20313 -1.95703,-4.89453 -5.02734,-4.89453 -4.00781,0 -5.16406,3.11328 -5.25391,4.89453 z m -10.28125,4.00781 c 0.17969,4.00391 2.13672,5.82813 5.65235,5.82813 2.53906,0 4.58593,-1.5586 4.98437,-2.98047 h 5.5625 c -1.77734,5.42968 -5.5625,7.74609 -10.76953,7.74609 -7.25391,0 -11.75,-4.98828 -11.75,-12.10937 0,-6.89844 4.76172,-12.14844 11.75,-12.14844 7.83594,0 11.61719,6.58594 11.17187,13.66406 z m 0,0"
				id="path56"
				inkscape:connector-curvature="0"/>
		<path
				style="fill:#ffffff;fill-opacity:1;fill-rule:nonzero;stroke:none"
				d="m 810.98437,667.51953 h -7.03125 l -7.8789,-23.01172 h 6.63281 l 4.85156,15.71094 h 0.0899 L 812.5,644.50781 h 6.27344 z m 0,0"
				id="path58"
				inkscape:connector-curvature="0"/>
		<path
				style="fill:#ffffff;fill-opacity:1;fill-rule:nonzero;stroke:none"
				d="m 835.10547,653.54297 c -0.57813,-3.20313 -1.95703,-4.89453 -5.02735,-4.89453 -4.00781,0 -5.16406,3.11328 -5.2539,4.89453 z m -10.28125,4.00781 c 0.17969,4.00391 2.14062,5.82813 5.65234,5.82813 2.53906,0 4.58594,-1.5586 4.98828,-2.98047 h 5.5625 c -1.78125,5.42968 -5.5625,7.74609 -10.77343,7.74609 -7.25391,0 -11.75,-4.98828 -11.75,-12.10937 0,-6.89844 4.76562,-12.14844 11.75,-12.14844 7.83593,0 11.61718,6.58594 11.17187,13.66406 z m 0,0"
				id="path60"
				inkscape:connector-curvature="0"/>
		<path
				style="fill:#ffffff;fill-opacity:1;fill-rule:nonzero;stroke:none"
				d="m 844.27344,644.50781 h 6.01172 v 3.20313 h 0.13281 c 1.60156,-2.58203 4.36328,-3.82422 7.03125,-3.82422 6.72265,0 8.41406,3.78125 8.41406,9.47656 v 14.15625 h -6.32031 v -12.99609 c 0,-3.78516 -1.11328,-5.65235 -4.05078,-5.65235 -3.42969,0 -4.89453,1.91407 -4.89453,6.58594 v 12.0625 h -6.32032 v -23.01172 z m 0,0"
				id="path62"
				inkscape:connector-curvature="0"/>
		<path
				style="fill:#ffffff;fill-opacity:1;fill-rule:nonzero;stroke:none"
				d="m 877.78906,644.50781 h 4.62891 v 4.23047 h -4.62891 v 11.39453 c 0,2.13672 0.53516,2.66797 2.67188,2.66797 0.66797,0 1.28906,-0.043 1.95703,-0.17578 v 4.94141 c -1.06641,0.17578 -2.44531,0.21875 -3.69531,0.21875 -3.8711,0 -7.25391,-0.88672 -7.25391,-5.47266 v -13.57422 h -3.82813 v -4.23047 h 3.82813 v -6.89844 h 6.32031 z m 0,0"
				id="path64"
				inkscape:connector-curvature="0"/>
		<path
				style="fill:#ffffff;fill-opacity:1;fill-rule:nonzero;stroke:none"
				d="m 135.82031,519.05469 h -35.04687 v -12.46094 h 84.53515 v 12.46094 h -35.40234 v 91.61718 h -14.08594 z m 0,0"
				id="path66"
				inkscape:connector-curvature="0"/>
		<path
				style="fill:#ffffff;fill-opacity:1;fill-rule:nonzero;stroke:none"
				d="m 230.97266,566.70703 c -0.66016,-8.21484 -2.82813,-14.03125 -6.51172,-17.45312 -3.67969,-3.42188 -8.56641,-5.13282 -14.65625,-5.13282 -6.1836,0 -11.17578,2.17188 -14.97266,6.51172 -3.80078,4.34375 -5.82031,9.69922 -6.05469,16.07422 z m 12.17968,20.17578 c -1.41406,7.83594 -5.26562,14.32813 -11.53906,19.47266 -5.52344,4.33984 -12.79297,6.55859 -21.80859,6.65234 -10.6211,-0.0937 -19.04688,-3.57422 -25.27344,-10.4414 -6.23438,-6.86719 -9.34766,-16.10547 -9.34766,-27.71875 0,-13.3125 3.21094,-23.67188 9.62891,-31.08204 6.41797,-7.41015 15.33984,-11.11718 26.76172,-11.11718 10.24219,0 18.24219,3.82422 24.0039,11.47265 5.75782,7.64453 8.63672,18.57422 8.63672,32.78125 h -55.4375 c 0,7.92969 1.83985,14.06641 5.52344,18.40625 3.67969,4.34375 9.20313,6.51563 16.56641,6.51563 5.1914,0 9.65234,-1.57031 13.38281,-4.71094 3.72656,-3.13672 5.78125,-6.54687 6.16016,-10.23047 z m 0,0"
				id="path68"
				inkscape:connector-curvature="0"/>
		<path
				style="fill:#ffffff;fill-opacity:1;fill-rule:nonzero;stroke:none"
				d="m 307.15625,560.33203 c -1.83984,-10.80859 -7.83594,-16.21094 -17.98438,-16.21094 -6.27734,0 -11.32812,2.51172 -15.15234,7.53907 -3.82031,5.02734 -5.73437,12.02734 -5.73437,20.99218 0,9.76953 1.76953,17.07422 5.3125,21.91407 3.53906,4.83593 8.68359,7.25781 15.43359,7.25781 4.53125,0 8.44922,-1.66406 11.75391,-4.99219 3.30078,-3.32812 5.42578,-7.65625 6.37109,-12.99219 h 12.32031 c -1.27344,9.39063 -4.58984,16.57813 -9.94922,21.5586 -5.35547,4.98047 -12.28125,7.46875 -20.77734,7.46875 -9.96094,0 -18.125,-3.41016 -24.5,-10.23047 -6.37109,-6.82031 -9.55859,-16.08203 -9.55859,-27.78906 0,-12.83594 3.1875,-23.08204 9.55859,-30.72657 6.375,-7.64843 15.31641,-11.47265 26.83594,-11.47265 8.39843,0 15.08984,2.51562 20.07031,7.54297 4.98047,5.02734 7.75391,11.74218 8.32031,20.14062 z m 0,0"
				id="path70"
				inkscape:connector-curvature="0"/>
		<path
				style="fill:#ffffff;fill-opacity:1;fill-rule:nonzero;stroke:none"
				d="m 395.375,610.67187 h -12.74609 v -49.55859 c 0,-6.08984 -1.17969,-10.44531 -3.53907,-13.0625 -2.35937,-2.62109 -6.20703,-3.92969 -11.53906,-3.92969 -6.5625,0 -11.73047,2.1211 -15.50781,6.3711 -3.77735,4.24609 -5.66406,10.52734 -5.66406,18.83203 v 41.34765 H 333.63672 V 506.59766 h 12.74219 v 38.37109 h 0.28515 c 5.79688,-8.21094 13.19531,-12.31641 22.19922,-12.31641 8.29297,0 14.78516,2.16797 19.47656,6.51172 4.6875,4.34375 7.03516,10.97266 7.03516,19.89453 z m 0,0"
				id="path72"
				inkscape:connector-curvature="0"/>
		<path
				style="fill:#ffffff;fill-opacity:1;fill-rule:nonzero;stroke:none"
				d="m 475.37891,610.67187 h -12.74219 v -46.65625 c 0,-7.17578 -1.25391,-12.28515 -3.75391,-15.32812 -2.5039,-3.04297 -6.65625,-4.56641 -12.46094,-4.56641 -5.71093,0 -10.48046,2.17188 -14.30078,6.51172 -3.82422,4.34375 -5.73437,10.57422 -5.73437,18.69141 v 41.34765 h -12.7461 v -75.82812 h 12.03516 v 10.69141 h 0.28516 c 5.98437,-8.58985 13.61718,-12.88282 22.90625,-12.88282 8.57812,0 15.14062,2.27735 19.6914,6.83203 4.54688,4.55469 6.82032,11.07813 6.82032,19.57422 z m 0,0"
				id="path74"
				inkscape:connector-curvature="0"/>
		<path
				style="fill:#ffffff;fill-opacity:1;fill-rule:nonzero;stroke:none"
				d="m 506.39062,610.67187 h -12.74609 v -75.82812 h 12.74609 z M 493.64453,506.59766 h 12.74609 v 14.4414 h -12.74609 z m 0,0"
				id="path76"
				inkscape:connector-curvature="0"/>
		<path
				style="fill:#ffffff;fill-opacity:1;fill-rule:nonzero;stroke:none"
				d="m 573.4375,560.33203 c -1.83984,-10.80859 -7.83594,-16.21094 -17.98438,-16.21094 -6.27734,0 -11.32812,2.51172 -15.14843,7.53907 -3.82422,5.02734 -5.73828,12.02734 -5.73828,20.99218 0,9.76953 1.77343,17.07422 5.3125,21.91407 3.53906,4.83593 8.68359,7.25781 15.43359,7.25781 4.53125,0 8.44922,-1.66406 11.75391,-4.99219 3.30078,-3.32812 5.42578,-7.65625 6.37109,-12.99219 h 12.32031 c -1.27344,9.39063 -4.58984,16.57813 -9.94922,21.5586 -5.35547,4.98047 -12.28125,7.46875 -20.77734,7.46875 -9.96094,0 -18.125,-3.41016 -24.5,-10.23047 -6.37109,-6.82031 -9.55469,-16.08203 -9.55469,-27.78906 0,-12.83594 3.1836,-23.08204 9.55469,-30.72657 6.375,-7.64843 15.31641,-11.47265 26.83594,-11.47265 8.39843,0 15.08984,2.51562 20.07031,7.54297 4.98047,5.02734 7.75391,11.74218 8.32031,20.14062 z m 0,0"
				id="path78"
				inkscape:connector-curvature="0"/>
		<path
				style="fill:#ffffff;fill-opacity:1;fill-rule:nonzero;stroke:none"
				d="m 646.00781,571.94531 c -0.94531,0.99219 -2.79687,1.79297 -5.55859,2.40625 -2.75781,0.61328 -7.91797,1.41797 -15.46875,2.40625 -5.57031,0.66406 -9.66406,2.03125 -12.28516,4.10938 -2.61719,2.07422 -3.92578,4.8125 -3.92578,8.21093 0,4.15235 1.10547,7.38672 3.32422,9.69922 2.21875,2.3125 5.76172,3.46875 10.62109,3.46875 6.08985,0 11.49219,-1.73437 16.21485,-5.20312 4.71875,-3.46875 7.07812,-7.67969 7.07812,-12.63672 z m -46.65625,-14.01953 c 0.28125,-8.54297 3.05469,-14.89062 8.31641,-19.04297 5.26562,-4.15625 12.92578,-6.23437 22.97656,-6.23437 8.02344,0 14.75,1.82031 20.17969,5.45312 5.42578,3.63672 8.14062,8.875 8.14062,15.71875 v 43.6836 c 0,2.97265 1.34766,4.46093 4.03516,4.46093 1.08594,0 2.48047,-0.1875 4.17969,-0.5664 v 9.27343 c -2.31641,0.94532 -4.72266,1.41797 -7.22266,1.41797 -4.34375,0 -7.57812,-0.93359 -9.69922,-2.79687 -2.125,-1.86719 -3.23437,-4.78125 -3.32812,-8.7461 -7.26953,8.21485 -16.40235,12.32032 -27.39844,12.32032 -7.17578,0 -12.93359,-2.02735 -17.27734,-6.08985 -4.34375,-4.05859 -6.51563,-9.34375 -6.51563,-15.85937 0,-6.65235 1.89063,-12.03516 5.66797,-16.14063 3.77344,-4.10547 9.27344,-6.58593 16.49609,-7.43359 l 22.51172,-2.76172 c 4.0625,-0.61328 6.08985,-3.61328 6.08985,-8.99219 0,-3.96484 -1.47657,-7.00781 -4.42579,-9.13281 -2.94921,-2.125 -7.42187,-3.1875 -13.41406,-3.1875 -5.33594,0 -9.42969,1.18359 -12.28515,3.53906 -2.85547,2.36328 -4.56641,6.06641 -5.13282,11.11719 z m 0,0"
				id="path80"
				inkscape:connector-curvature="0"/>
		<path
				style="fill:#ffffff;fill-opacity:1;fill-rule:nonzero;stroke:none"
				d="M 692.3125,610.67187 H 679.56641 V 506.59766 h 12.74609 z m 0,0"
				id="path82"
				inkscape:connector-curvature="0"/>
		<path
				style="fill:#ffffff;fill-opacity:1;fill-rule:nonzero;stroke:none"
				d="m 794.90234,506.59375 v 67.54687 c 0,11.51563 -3.64453,20.94532 -10.9375,28.28516 -7.29297,7.33984 -17.61718,11.00781 -30.97656,11.00781 -12.46094,0 -22.24219,-3.38672 -29.34766,-10.16015 -7.10156,-6.77344 -10.65625,-15.84766 -10.65625,-27.22266 v -69.45703 h 13.87891 v 65.49219 c 0,9.58203 2.39453,16.79297 7.1875,21.6289 4.78906,4.83985 11.19531,7.25782 19.22266,7.25782 8.58984,0 15.30078,-2.41797 20.14062,-7.25782 4.83985,-4.83593 7.25781,-11.95312 7.25781,-21.34375 v -65.77734 z m 0,0"
				id="path84"
				inkscape:connector-curvature="0"/>
		<path
				style="fill:#ffffff;fill-opacity:1;fill-rule:nonzero;stroke:none"
				d="m 877.03125,610.67187 h -12.74219 v -46.65625 c 0,-7.17578 -1.2539,-12.28515 -3.7539,-15.32812 -2.50391,-3.04297 -6.65625,-4.56641 -12.46094,-4.56641 -5.71094,0 -10.48047,2.17188 -14.30078,6.51172 -3.82422,4.34375 -5.73438,10.57422 -5.73438,18.69141 v 41.34765 h -12.74609 v -75.82812 h 12.03515 v 10.69141 h 0.28516 c 5.98438,-8.58985 13.62109,-12.88282 22.90625,-12.88282 8.57813,0 15.14063,2.27735 19.69141,6.83203 4.54687,4.55469 6.82031,11.07813 6.82031,19.57422 z m 0,0"
				id="path86"
				inkscape:connector-curvature="0"/>
		<path
				style="fill:#ffffff;fill-opacity:1;fill-rule:nonzero;stroke:none"
				d="m 908.04297,610.67187 h -12.7461 v -75.82812 h 12.7461 z m -12.7461,-104.07421 h 12.7461 v 14.4414 h -12.7461 z m 0,0"
				id="path88"
				inkscape:connector-curvature="0"/>
		<path
				style="fill:#ffffff;fill-opacity:1;fill-rule:nonzero;stroke:none"
				d="m 974.80859,534.84375 h 13.94532 l -28.88672,75.82812 h -13.66407 l -27.68359,-75.82812 h 14.80078 l 19.75,61.73828 h 0.28516 z m 0,0"
				id="path90"
				inkscape:connector-curvature="0"/>
		<path
				style="fill:#ffffff;fill-opacity:1;fill-rule:nonzero;stroke:none"
				d="m 1048.2969,566.70703 c -0.6602,-8.21484 -2.8281,-14.03125 -6.5117,-17.45312 -3.6797,-3.42188 -8.5664,-5.13282 -14.6563,-5.13282 -6.1836,0 -11.1758,2.17188 -14.9727,6.51172 -3.8007,4.34375 -5.8203,9.69922 -6.0546,16.07422 z m 12.1797,20.17578 c -1.4141,7.83594 -5.2657,14.32813 -11.5391,19.47266 -5.5234,4.33984 -12.793,6.55859 -21.8086,6.65234 -10.6211,-0.0937 -19.0469,-3.57422 -25.2734,-10.4414 -6.23441,-6.86719 -9.34769,-16.10547 -9.34769,-27.71875 0,-13.3125 3.21094,-23.67188 9.62889,-31.08204 6.418,-7.41015 15.3399,-11.11718 26.7617,-11.11718 10.2422,0 18.2422,3.82422 24.0039,11.47265 5.7579,7.64453 8.6368,18.57422 8.6368,32.78125 h -55.4375 c 0,7.92969 1.8398,14.06641 5.5234,18.40625 3.6797,4.34375 9.2031,6.51563 16.5664,6.51563 5.1914,0 9.6524,-1.57031 13.3828,-4.71094 3.7266,-3.13672 5.7813,-6.54687 6.1602,-10.23047 z m 0,0"
				id="path92"
				inkscape:connector-curvature="0"/>
		<path
				style="fill:#ffffff;fill-opacity:1;fill-rule:nonzero;stroke:none"
				d="m 1089.3633,610.67187 h -12.7422 v -75.82812 h 12.0352 v 12.60547 h 0.2812 c 5.5234,-9.86719 12.625,-14.79688 21.3125,-14.79688 1.3672,0 2.4766,0.14063 3.3281,0.42188 v 13.24219 h -4.7422 c -5.7148,0 -10.3867,1.93359 -14.0195,5.80468 -3.6367,3.8711 -5.4531,8.6836 -5.4531,14.44141 z m 0,0"
				id="path94"
				inkscape:connector-curvature="0"/>
		<path
				style="fill:#ffffff;fill-opacity:1;fill-rule:nonzero;stroke:none"
				d="m 1166.6094,556.44141 c -0.1914,-4.53125 -1.8086,-7.78907 -4.8516,-9.77344 -3.043,-1.98047 -7.4219,-2.97266 -13.1328,-2.97266 -4.1562,0 -7.707,0.92188 -10.6562,2.76172 -2.9493,1.83984 -4.4258,4.48438 -4.4258,7.92969 0,2.73828 0.875,4.7539 2.6211,6.05469 1.7461,1.29687 5.5234,2.67968 11.3281,4.14062 l 12.6016,3.18359 c 7.6484,1.9375 13.1093,4.40235 16.3906,7.40235 3.2812,2.99609 4.9219,7.18359 4.9219,12.5664 0,7.45704 -2.7266,13.51172 -8.1797,18.16016 -5.4493,4.64844 -12.7305,6.97266 -21.8399,6.97266 -10.6211,0 -18.6562,-2.20313 -24.1094,-6.61719 -5.4492,-4.41406 -8.2265,-11.05859 -8.3164,-19.93359 h 12.3164 c 0.1875,5.23828 1.9258,9.13281 5.2032,11.68359 3.2812,2.54687 8.2031,3.82422 14.7656,3.82422 5.332,0 9.5664,-1.0625 12.707,-3.1875 3.1367,-2.125 4.7071,-5.07422 4.7071,-8.85156 0,-2.6875 -1.0157,-4.83594 -3.043,-6.44141 -2.0313,-1.60547 -6.043,-3.08984 -12.0352,-4.46094 l -14.7968,-3.60937 c -5.9961,-1.51172 -10.4219,-3.76563 -13.2774,-6.76172 -2.8555,-3 -4.2851,-6.87891 -4.2851,-11.64844 0,-7.45703 2.6679,-13.35547 8.0039,-17.69922 5.332,-4.33984 12.2929,-6.51172 20.8867,-6.51172 9.1523,0 16.1758,2.22657 21.0625,6.6875 4.8828,4.46094 7.4687,10.16016 7.75,17.10157 z m 0,0"
				id="path96"
				inkscape:connector-curvature="0"/>
		<path
				style="fill:#ffffff;fill-opacity:1;fill-rule:nonzero;stroke:none"
				d="m 1209.0898,610.67187 h -12.746 v -75.82812 h 12.746 z m -12.746,-104.07421 h 12.746 v 14.4414 h -12.746 z m 0,0"
				id="path98"
				inkscape:connector-curvature="0"/>
		<path
				style="fill:#ffffff;fill-opacity:1;fill-rule:nonzero;stroke:none"
				d="m 1243.6406,545.39453 v 49.34766 c 0,1.9375 0.5313,3.41015 1.5938,4.42578 1.0586,1.01562 2.9609,1.52344 5.6992,1.52344 h 4.8828 v 9.98046 c -4.625,0.66016 -7.8125,0.99219 -9.5586,0.99219 -5.332,0 -9.2265,-1.27344 -11.6797,-3.82422 -2.457,-2.54687 -3.6836,-6.67578 -3.6836,-12.39062 v -50.05469 h -10.2656 v -10.55078 h 10.2656 v -21.16797 h 12.7461 v 21.16797 h 12.1758 v 10.55078 z m 0,0"
				id="path100"
				inkscape:connector-curvature="0"/>
		<path
				style="fill:#ffffff;fill-opacity:1;fill-rule:nonzero;stroke:none"
				d="m 1315.4336,534.84375 h 13.875 l -27.1172,74.41406 c -0.4726,1.32031 -0.9453,2.57031 -1.4141,3.75 -4.1093,10.94922 -7.6484,18.46875 -10.621,22.55078 -2.9727,4.08203 -7.7891,6.125 -14.4454,6.125 -3.4921,0 -6.3476,-0.3789 -8.5664,-1.13281 v -11.60937 c 2.4102,0.84765 5.0508,1.27343 7.9297,1.27343 3.1172,0 5.3946,-0.98047 6.836,-2.9375 1.4375,-1.96093 3.5742,-6.76172 6.4062,-14.41015 l -28.1797,-78.02344 h 14.3711 l 20.3203,61.73828 h 0.2852 z m 0,0"
				id="path102"
				inkscape:connector-curvature="0"/>
		<path
				style="fill:#ffffff;fill-opacity:1;fill-rule:nonzero;stroke:none"
				d="m 1346.0195,572.65234 c 0,8.44922 1.9102,15.39844 5.7344,20.85157 3.8242,5.45312 9.25,8.17578 16.2852,8.17578 7.2656,0 12.789,-2.85157 16.5664,-8.56641 3.7734,-5.71094 5.664,-12.53125 5.664,-20.46094 0,-8.02343 -1.8906,-14.83203 -5.664,-20.42578 -3.7774,-5.59375 -9.3008,-8.39062 -16.5664,-8.39062 -6.75,0 -12.1094,2.63281 -16.0743,7.89453 -3.9648,5.26562 -5.9453,12.23828 -5.9453,20.92187 m -13.0273,0 c 0,-11.28125 3.1367,-20.76953 9.4141,-28.46093 6.2773,-7.69141 14.8242,-11.54297 25.6328,-11.54297 11.0429,0 19.6797,3.89453 25.9101,11.68359 6.2305,7.78906 9.3477,17.23047 9.3477,28.32031 0,11.14063 -3.0938,20.62891 -9.2735,28.46094 -6.1875,7.83594 -14.8476,11.75391 -25.9843,11.75391 -10.7149,0 -19.2383,-3.80078 -25.5586,-11.39844 -6.3282,-7.59766 -9.4883,-17.20313 -9.4883,-28.81641"
				id="path104"
				inkscape:connector-curvature="0"/>
		<path
				style="fill:#ffffff;fill-opacity:1;fill-rule:nonzero;stroke:none"
				d="m 1433.5977,545.39453 v 65.27734 h -12.7422 v -65.27734 h -10.4102 v -10.55078 h 10.4102 v -13.02734 c 0,-5.70704 1.7343,-9.92188 5.2031,-12.63672 3.4687,-2.71485 8.3203,-4.07032 14.5508,-4.07032 2.1211,0 4.0351,0.0937 5.7344,0.28125 v 11.47266 c -1.5118,-0.19141 -3.2344,-0.28516 -5.168,-0.28516 -2.832,0 -4.8047,0.69922 -5.9141,2.08985 -1.1094,1.39062 -1.664,3.64453 -1.664,6.76172 v 9.41406 h 12.7461 v 10.55078 z m 0,0"
				id="path106"
				inkscape:connector-curvature="0"/>
		<path
				style="fill:#ffffff;fill-opacity:1;fill-rule:nonzero;stroke:none"
				d="m 1532.9336,537.89062 c -1.5586,-7.08203 -4.8281,-12.44921 -9.8086,-16.10937 -4.9766,-3.65625 -11.4336,-5.48438 -19.3633,-5.48438 -10.2422,0 -18.4765,3.71485 -24.707,11.14844 -6.2305,7.4336 -9.3477,17.47656 -9.3477,30.12891 0,14.6289 2.9493,25.51953 8.8516,32.67187 5.8984,7.15235 14.4414,10.72657 25.6289,10.72657 7.3633,0 13.6992,-2.44141 19.0117,-7.32813 5.3086,-4.88672 8.8828,-11.97656 10.7227,-21.27344 h 13.6679 c -1.8437,13.35547 -6.9179,23.53907 -15.2226,30.54688 -8.3086,7.01172 -18.4102,10.51562 -30.3047,10.51562 -14.207,0 -25.5703,-4.88672 -34.0898,-14.65625 -8.5196,-9.76953 -12.7774,-23.33984 -12.7774,-40.71093 0,-16.75391 4.4453,-29.98438 13.3438,-39.6836 8.8984,-9.69922 20.6367,-14.54687 35.2226,-14.54687 12.0821,0 21.8789,3.11328 29.3828,9.34375 7.5039,6.23047 11.9649,14.46875 13.3828,24.71093 z m 0,0"
				id="path108"
				inkscape:connector-curvature="0"/>
		<path
				style="fill:#ffffff;fill-opacity:1;fill-rule:nonzero;stroke:none"
				d="m 1575.9805,610.67187 h -12.7461 v -75.82812 h 12.0351 v 12.60547 h 0.2852 c 5.5234,-9.86719 12.625,-14.79688 21.3125,-14.79688 1.3672,0 2.4766,0.14063 3.3242,0.42188 v 13.24219 h -4.7422 c -5.7109,0 -10.3828,1.93359 -14.0195,5.80468 -3.6328,3.8711 -5.4492,8.6836 -5.4492,14.44141 z m 0,0"
				id="path110"
				inkscape:connector-curvature="0"/>
		<path
				style="fill:#ffffff;fill-opacity:1;fill-rule:nonzero;stroke:none"
				d="m 1661.082,566.70703 c -0.6601,-8.21484 -2.832,-14.03125 -6.5156,-17.45312 -3.6797,-3.42188 -8.5664,-5.13282 -14.6523,-5.13282 -6.1875,0 -11.1758,2.17188 -14.9766,6.51172 -3.7969,4.34375 -5.8164,9.69922 -6.0508,16.07422 z m 12.1797,20.17578 c -1.4179,7.83594 -5.2656,14.32813 -11.5429,19.47266 -5.5235,4.33984 -12.7891,6.55859 -21.8047,6.65234 -10.6211,-0.0937 -19.0469,-3.57422 -25.2774,-10.4414 -6.2304,-6.86719 -9.3476,-16.10547 -9.3476,-27.71875 0,-13.3125 3.2109,-23.67188 9.6328,-31.08204 6.4179,-7.41015 15.3398,-11.11718 26.7617,-11.11718 10.2422,0 18.2422,3.82422 24,11.47265 5.7578,7.64453 8.6367,18.57422 8.6367,32.78125 h -55.4336 c 0,7.92969 1.8399,14.06641 5.5196,18.40625 3.6835,4.34375 9.2031,6.51563 16.5703,6.51563 5.1875,0 9.6523,-1.57031 13.3789,-4.71094 3.7304,-3.13672 5.7812,-6.54687 6.1601,-10.23047 z m 0,0"
				id="path112"
				inkscape:connector-curvature="0"/>
		<path
				style="fill:#ffffff;fill-opacity:1;fill-rule:nonzero;stroke:none"
				d="m 1704.7656,545.39453 v 49.34766 c 0,1.9375 0.5313,3.41015 1.5938,4.42578 1.0625,1.01562 2.9609,1.52344 5.6992,1.52344 h 4.8867 v 9.98046 c -4.625,0.66016 -7.8125,0.99219 -9.5586,0.99219 -5.3359,0 -9.2265,-1.27344 -11.6836,-3.82422 -2.4531,-2.54687 -3.6797,-6.67578 -3.6797,-12.39062 v -50.05469 h -10.2656 v -10.55078 h 10.2656 v -21.16797 h 12.7422 v 21.16797 h 12.1797 v 10.55078 z m 0,0"
				id="path114"
				inkscape:connector-curvature="0"/>
		<path
				style="fill:#ffffff;fill-opacity:1;fill-rule:nonzero;stroke:none"
				d="m 1781.5859,566.70703 c -0.6601,-8.21484 -2.832,-14.03125 -6.5156,-17.45312 -3.6797,-3.42188 -8.5664,-5.13282 -14.6523,-5.13282 -6.1875,0 -11.1758,2.17188 -14.9766,6.51172 -3.7969,4.34375 -5.8164,9.69922 -6.0508,16.07422 z m 12.1797,20.17578 c -1.4179,7.83594 -5.2656,14.32813 -11.5429,19.47266 -5.5235,4.33984 -12.7891,6.55859 -21.8047,6.65234 -10.6211,-0.0937 -19.0469,-3.57422 -25.2774,-10.4414 -6.2304,-6.86719 -9.3476,-16.10547 -9.3476,-27.71875 0,-13.3125 3.2109,-23.67188 9.6328,-31.08204 6.418,-7.41015 15.3398,-11.11718 26.7617,-11.11718 10.2422,0 18.2422,3.82422 24,11.47265 5.7578,7.64453 8.6367,18.57422 8.6367,32.78125 h -55.4336 c 0,7.92969 1.8399,14.06641 5.5196,18.40625 3.6836,4.34375 9.2031,6.51563 16.5703,6.51563 5.1875,0 9.6523,-1.57031 13.3789,-4.71094 3.7304,-3.13672 5.7812,-6.54687 6.1601,-10.23047 z m 0,0"
				id="path116"
				inkscape:connector-curvature="0"/>
		<path
				style="fill:#ff2805;fill-opacity:1;fill-rule:nonzero;stroke:none"
				d="M 129.5,408.59766 H 99.847656 v -27.1211 h 91.878904 v 27.1211 h -29.64453 v 78.69531 H 129.5 Z m 0,0"
				id="path118"
				inkscape:connector-curvature="0"/>
		<path
				style="fill:#ff2805;fill-opacity:1;fill-rule:nonzero;stroke:none"
				d="m 196.78906,381.47656 h 89.19141 v 27.1211 h -56.58985 v 13.1875 h 56.58985 v 25.20312 h -56.58985 v 13.1875 h 56.60547 v 27.11719 h -89.20703 z m 0,0"
				id="path120"
				inkscape:connector-curvature="0"/>
		<path
				style="fill:#ff2805;fill-opacity:1;fill-rule:nonzero;stroke:none"
				d="m 324.06641,460.17187 h 12.75 c 20.30859,0 23.28125,-16.45312 23.28125,-26.39453 0,-6.65625 -2.08594,-25.17968 -25.65235,-25.17968 h -10.3789 z m -32.59766,-78.69531 h 53.5 c 35.26562,0 47.72656,26.08594 47.72656,52.75391 0,32.46484 -17.1875,53.0625 -54.09375,53.0625 h -47.13281 z m 0,0"
				id="path122"
				inkscape:connector-curvature="0"/>
		<path
				style="fill:#ff2805;fill-opacity:1;fill-rule:nonzero;stroke:none"
				d="m 439.54297,446.51562 -9.94531,-16.49218 -9.69922,16.49218 h -23.88672 l 22.67969,-33.34375 -21.83594,-31.89843 H 420.75 l 8.84766,15.76562 9.10156,-15.76562 h 23.89062 l -21.82812,31.89843 22.67578,33.34375 z m 0,0"
				id="path124"
				inkscape:connector-curvature="0"/>
	</g>
</svg>
